<svg id="agility_copia" xmlns="http://www.w3.org/2000/svg" width="120.454" height="109.795" viewBox="0 0 120.454 109.795">
  <g id="Group_16" data-name="Group 16">
    <path id="Path_2" data-name="Path 2" d="M302.01,191.682l-17.856-6.349s1.19-5.158-6.878-11.9c0,0-2.91,14.02-7.672,19.576l.794,3.836s-8.068,10.846-11.375,12.036c0,0-7.143,5.291-28.438,2.381v32.406l4.894-6.085s23.544,7.143,31.215,3.836l15.608,21.3s1.058,1.852,5.82,1.984c0,0,7.01.661,4.365-7.936L279.392,234.4a17.3,17.3,0,0,0,3.042-10.714s2.116-10.449,3.7-14.153l7.936-2.91a75.421,75.421,0,0,0,11.772-2.646c4.365-1.587,5.555-5.379,5.511-6.437S309.946,191.417,302.01,191.682Z" transform="translate(-197.56 -154.911)" fill="#fff"/>
    <path id="Path_3" data-name="Path 3" d="M28,264.591s-14.109,33.079,17.989,31c0,0-2.822,9.209-.353,11.326l-9.876,24.337s-2.116,13.4,10.229,5.643l7.583-10.229V287.65S32.583,288.223,28,264.591Z" transform="translate(-24.91 -231.436)" fill="#fff"/>
    <rect id="Rectangle_21" data-name="Rectangle 21" width="1.587" height="109.795" transform="translate(29.983)" fill="#fff"/>
    <rect id="Rectangle_22" data-name="Rectangle 22" width="1.587" height="109.795" transform="translate(118.867)" fill="#fff"/>
    <path id="Path_4" data-name="Path 4" d="M490.833,58.1h-1.587V87.951l1.587-3.539Z" transform="translate(-414.689 -58.103)" fill="#fff"/>
    <path id="Path_5" data-name="Path 5" d="M489.246,673.018h1.587V661.391l-1.587-1.548Z" transform="translate(-414.689 -563.223)" fill="#fff"/>
  </g>
</svg>
